<svg width="31" height="24" viewBox="0 0 31 24" fill="none" xmlns="http://www.w3.org/2000/svg">
  <path d="M28.4167 1.5H14.9167C14.5042 1.5 14.1667 1.83562 14.1667 2.25V6H12.6667V2.25C12.6667 1.00734 13.6746 0 14.9167 0H28.4167C29.6589 0 30.6667 1.00734 30.6667 2.25V21.75C30.6667 22.9922 29.6589 24 28.4167 24H18.5402C18.6199 23.7234 18.6667 23.5125 18.6667 23.25V22.5H28.4167C28.8292 22.5 29.1667 22.1625 29.1667 21.75V2.25C29.1667 1.83562 28.8292 1.5 28.4167 1.5ZM26.6964 14.8453C26.9917 15.1359 26.9917 15.6141 26.6964 15.9047C26.4058 16.2 25.9277 16.2 25.6371 15.9047L23.9167 14.1844V20.25C23.9167 20.6625 23.5792 21 23.1667 21C22.7542 21 22.4167 20.6625 22.4167 20.25V14.1844L20.6964 15.9047C20.4058 16.2 19.9277 16.2 19.6371 15.9047C19.3417 15.6141 19.3417 15.1359 19.6371 14.8453L22.6371 11.8453C22.9277 11.55 23.4058 11.55 23.6964 11.8453L26.6964 14.8453ZM11.9167 15C12.3292 15 12.6667 15.3375 12.6667 15.75C12.6667 16.1625 12.3292 16.5 11.9167 16.5H7.41675C7.00425 16.5 6.66675 16.1625 6.66675 15.75C6.66675 15.3375 7.00425 15 7.41675 15H11.9167ZM0.666748 9C0.666748 8.17031 1.33847 7.5 2.16675 7.5H17.1667C17.9964 7.5 18.6667 8.17031 18.6667 9V12C18.6667 12.8297 17.9964 13.5 17.1667 13.5V22.5C17.1667 23.3297 16.4964 24 15.6667 24H3.66675C2.83847 24 2.16675 23.3297 2.16675 22.5V13.5C1.33847 13.5 0.666748 12.8297 0.666748 12V9ZM17.1667 9H2.16675V12H17.1667V9ZM3.66675 22.5H15.6667V13.5H3.66675V22.5Z" fill="#FF7701" />
</svg>