<svg width="25" height="20" viewBox="0 0 25 20" fill="none" xmlns="http://www.w3.org/2000/svg">
  <path d="M22.5335 1.2H11.7335C11.4035 1.2 11.1335 1.4685 11.1335 1.8V4.8H9.9335V1.8C9.9335 0.805875 10.7397 0 11.7335 0H22.5335C23.5272 0 24.3335 0.805875 24.3335 1.8V17.4C24.3335 18.3938 23.5272 19.2 22.5335 19.2H14.6322C14.696 18.9788 14.7335 18.81 14.7335 18.6V18H22.5335C22.8635 18 23.1335 17.73 23.1335 17.4V1.8C23.1335 1.4685 22.8635 1.2 22.5335 1.2ZM21.1572 11.8763C21.3935 12.1088 21.3935 12.4913 21.1572 12.7238C20.9247 12.96 20.5422 12.96 20.3097 12.7238L18.9335 11.3475V16.2C18.9335 16.53 18.6635 16.8 18.3335 16.8C18.0035 16.8 17.7335 16.53 17.7335 16.2V11.3475L16.3572 12.7238C16.1247 12.96 15.7422 12.96 15.5097 12.7238C15.2735 12.4913 15.2735 12.1088 15.5097 11.8763L17.9097 9.47625C18.1422 9.24 18.5247 9.24 18.7572 9.47625L21.1572 11.8763ZM9.3335 12C9.6635 12 9.9335 12.27 9.9335 12.6C9.9335 12.93 9.6635 13.2 9.3335 13.2H5.7335C5.4035 13.2 5.1335 12.93 5.1335 12.6C5.1335 12.27 5.4035 12 5.7335 12H9.3335ZM0.333496 7.2C0.333496 6.53625 0.870871 6 1.5335 6H13.5335C14.1972 6 14.7335 6.53625 14.7335 7.2V9.6C14.7335 10.2638 14.1972 10.8 13.5335 10.8V18C13.5335 18.6638 12.9972 19.2 12.3335 19.2H2.7335C2.07087 19.2 1.5335 18.6638 1.5335 18V10.8C0.870871 10.8 0.333496 10.2638 0.333496 9.6V7.2ZM13.5335 7.2H1.5335V9.6H13.5335V7.2ZM2.7335 18H12.3335V10.8H2.7335V18Z" fill="#FF7701" />
</svg>