<svg width="18" height="13" viewBox="0 0 18 13" fill="none" xmlns="http://www.w3.org/2000/svg">
  <path d="M17 7.25C17.4142 7.25 17.75 6.91421 17.75 6.5C17.75 6.08579 17.4142 5.75 17 5.75V7.25ZM1 5.75C0.585787 5.75 0.25 6.08579 0.25 6.5C0.25 6.91421 0.585787 7.25 1 7.25V5.75ZM4.47204 12.0327C4.76624 12.3243 5.24111 12.3222 5.53269 12.028C5.82427 11.7338 5.82216 11.2589 5.52796 10.9673L4.47204 12.0327ZM3.23703 9.75269L3.76499 9.22H3.76499L3.23703 9.75269ZM3.23703 3.24731L2.70907 2.71462H2.70907L3.23703 3.24731ZM5.52796 2.03269C5.82216 1.74111 5.82428 1.26624 5.53269 0.972041C5.24111 0.677844 4.76624 0.675726 4.47204 0.967309L5.52796 2.03269ZM1.01989 6.81333L0.275909 6.90816L0.275909 6.90816L1.01989 6.81333ZM1.01989 6.18667L0.275909 6.09184L0.275909 6.09184L1.01989 6.18667ZM17 5.75H1V7.25H17V5.75ZM5.52796 10.9673L3.76499 9.22L2.70907 10.2854L4.47204 12.0327L5.52796 10.9673ZM3.76499 3.78L5.52796 2.03269L4.47204 0.967309L2.70907 2.71462L3.76499 3.78ZM3.76499 9.22C3.0495 8.51086 2.55869 8.02282 2.22659 7.60929C1.904 7.2076 1.79332 6.94958 1.76387 6.7185L0.275909 6.90816C0.354695 7.52628 0.649627 8.04122 1.05706 8.54854C1.45498 9.04403 2.01863 9.60108 2.70907 10.2854L3.76499 9.22ZM2.70907 2.71462C2.01863 3.39892 1.45498 3.95597 1.05706 4.45146C0.649628 4.95878 0.354695 5.47372 0.275909 6.09184L1.76387 6.2815C1.79332 6.05042 1.904 5.7924 2.22659 5.39071C2.55869 4.97718 3.0495 4.48914 3.76499 3.78L2.70907 2.71462ZM1.76387 6.7185C1.74538 6.57341 1.74538 6.42659 1.76387 6.2815L0.275909 6.09184C0.241364 6.36286 0.241364 6.63714 0.275909 6.90816L1.76387 6.7185Z" fill="#8653D4" />
</svg>