<svg width="20" height="20" viewBox="0 0 20 20" fill="none" xmlns="http://www.w3.org/2000/svg">
  <path d="M0.9375 1.25C0.417969 1.25 0 1.66797 0 2.1875V17.8125C0 18.332 0.417969 18.75 0.9375 18.75H1.5625C2.08203 18.75 2.5 18.332 2.5 17.8125V2.1875C2.5 1.66797 2.08203 1.25 1.5625 1.25H0.9375ZM4.375 1.25C4.03125 1.25 3.75 1.53125 3.75 1.875V18.125C3.75 18.4688 4.03125 18.75 4.375 18.75C4.71875 18.75 5 18.4688 5 18.125V1.875C5 1.53125 4.71875 1.25 4.375 1.25ZM7.1875 1.25C6.66797 1.25 6.25 1.66797 6.25 2.1875V17.8125C6.25 18.332 6.66797 18.75 7.1875 18.75H7.8125C8.33203 18.75 8.75 18.332 8.75 17.8125V2.1875C8.75 1.66797 8.33203 1.25 7.8125 1.25H7.1875ZM10.9375 1.25C10.418 1.25 10 1.66797 10 2.1875V17.8125C10 18.332 10.418 18.75 10.9375 18.75H11.5625C12.082 18.75 12.5 18.332 12.5 17.8125V2.1875C12.5 1.66797 12.082 1.25 11.5625 1.25H10.9375ZM17.5 2.1875V17.8125C17.5 18.332 17.918 18.75 18.4375 18.75H19.0625C19.582 18.75 20 18.332 20 17.8125V2.1875C20 1.66797 19.582 1.25 19.0625 1.25H18.4375C17.918 1.25 17.5 1.66797 17.5 2.1875ZM15 1.875V18.125C15 18.4688 15.2812 18.75 15.625 18.75C15.9688 18.75 16.25 18.4688 16.25 18.125V1.875C16.25 1.53125 15.9688 1.25 15.625 1.25C15.2812 1.25 15 1.53125 15 1.875Z" fill="#54B800" />
</svg>