<svg width="30" height="30" viewBox="0 0 30 30" fill="none" xmlns="http://www.w3.org/2000/svg">
  <path d="M27.4805 12.5C27.4341 10.8612 27.2782 9.81631 26.7532 8.92467C26.0065 7.65654 24.6617 6.95083 21.9721 5.5394L19.4721 4.22746C17.2776 3.07582 16.1804 2.5 15 2.5C13.8196 2.5 12.7224 3.07582 10.5279 4.22746L8.02786 5.5394C5.33829 6.95083 3.99349 7.65654 3.24675 8.92467C2.5 10.1928 2.5 11.7708 2.5 14.9269V15.0731C2.5 18.2291 2.5 19.8073 3.24675 21.0754C3.99349 22.3435 5.33829 23.0491 8.02786 24.4606L10.5279 25.7725C12.7224 26.9241 13.8196 27.5 15 27.5C16.1804 27.5 17.2776 26.9241 19.4721 25.7725L21.9721 24.4606C24.6617 23.0491 26.0065 22.3435 26.7532 21.0754C27.2782 20.1836 27.4341 19.1389 27.4805 17.5" stroke="#8653D4" stroke-width="1.5" stroke-linecap="round" />
  <path d="M26.25 9.375L15 15M15 15L3.75 9.375M15 15V26.875" stroke="#8653D4" stroke-width="1.5" stroke-linecap="round" />
</svg>