<svg width="19" height="17" viewBox="0 0 19 17" fill="none" xmlns="http://www.w3.org/2000/svg">
  <path d="M5 3.75C5 4.99264 6.00736 6 7.25 6V7.5C5.17893 7.5 3.5 5.82107 3.5 3.75H5ZM7.25 6C8.49264 6 9.5 4.99264 9.5 3.75H11C11 5.82107 9.32107 7.5 7.25 7.5V6ZM9.5 3.75C9.5 2.50736 8.49264 1.5 7.25 1.5V0C9.32107 0 11 1.67893 11 3.75H9.5ZM7.25 1.5C6.00736 1.5 5 2.50736 5 3.75H3.5C3.5 1.67893 5.17893 0 7.25 0V1.5ZM10.25 10.5H4.25V9H10.25V10.5ZM4.25 15H10.25V16.5H4.25V15ZM10.25 15C11.4926 15 12.5 13.9926 12.5 12.75H14C14 14.8211 12.3211 16.5 10.25 16.5V15ZM2 12.75C2 13.9926 3.00736 15 4.25 15V16.5C2.17893 16.5 0.5 14.8211 0.5 12.75H2ZM4.25 10.5C3.00736 10.5 2 11.5074 2 12.75H0.5C0.5 10.6789 2.17893 9 4.25 9V10.5ZM10.25 9C12.3211 9 14 10.6789 14 12.75H12.5C12.5 11.5074 11.4926 10.5 10.25 10.5V9Z" fill="white" />
  <path d="M11.4979 6.38865C11.6556 6.13527 11.9515 6 12.25 6C13.4926 6 14.5 4.99264 14.5 3.75C14.5 2.50736 13.4926 1.5 12.25 1.5C11.9515 1.5 11.6556 1.36473 11.4979 1.11135C11.4909 1.10014 11.4839 1.08896 11.4768 1.07782C11.2142 0.663308 11.3473 0.0764006 11.835 0.0227032C11.9713 0.00770099 12.1097 0 12.25 0C14.3211 0 16 1.67893 16 3.75C16 5.82107 14.3211 7.5 12.25 7.5C12.1097 7.5 11.9713 7.4923 11.835 7.4773C11.3473 7.4236 11.2142 6.83669 11.4768 6.42218C11.4839 6.41104 11.4909 6.39986 11.4979 6.38865Z" fill="white" />
  <path d="M14.5417 14.3169C14.6552 14.1275 14.8556 14 15.0764 14H15.25C16.4926 14 17.5 12.9926 17.5 11.75C17.5 10.5074 16.4926 9.5 15.25 9.5H15.0764C14.8556 9.5 14.6552 9.37252 14.5417 9.18313C14.2646 8.72082 14.5653 8 15.1043 8H15.25C17.3211 8 19 9.67893 19 11.75C19 13.8211 17.3211 15.5 15.25 15.5H15.1043C14.5653 15.5 14.2646 14.7792 14.5417 14.3169Z" fill="white" />
</svg>