<svg width="22" height="22" viewBox="0 0 22 22" fill="none" xmlns="http://www.w3.org/2000/svg">
  <path d="M10.9999 5.57143C12.2623 5.57143 13.2857 4.54807 13.2857 3.28571C13.2857 2.02335 12.2623 1 10.9999 1C9.73759 1 8.71423 2.02335 8.71423 3.28571C8.71423 4.54807 9.73759 5.57143 10.9999 5.57143Z" stroke="white" stroke-width="1.5" stroke-linecap="round" stroke-linejoin="round" />
  <path d="M15 9.57153C15 8.51067 14.5786 7.49325 13.8284 6.7431C13.0783 5.99296 12.0609 5.57153 11 5.57153C9.93913 5.57153 8.92172 5.99296 8.17157 6.7431C7.42143 7.49325 7 8.51067 7 9.57153V11.2858H8.71428L9.28571 15.8572H12.7143L13.2857 11.2858H15V9.57153Z" stroke="white" stroke-width="1.5" stroke-linecap="round" stroke-linejoin="round" />
  <path d="M3.5 13C1.94409 13.7933 1 14.8353 1 15.9766C1 18.4618 5.47715 20.4766 11 20.4766C16.5228 20.4766 21 18.4618 21 15.9766C21 14.8353 20.0559 13.7933 18.5 13" stroke="white" stroke-width="1.5" stroke-linecap="round" />
</svg>