<svg width="24" height="19" viewBox="0 0 24 19" fill="none" xmlns="http://www.w3.org/2000/svg">
  <path d="M14.3882 4.6123H19.1637C20.008 4.6123 20.8178 4.94772 21.4149 5.54479C22.012 6.14184 22.3474 6.95162 22.3474 7.79598V14.1633H19.9596" stroke="white" stroke-width="1.5" stroke-linecap="round" stroke-linejoin="round" />
  <path d="M3.24516 14.1634H1.65332V3.02055C1.65332 2.59836 1.82103 2.19348 2.11956 1.89494C2.41809 1.59643 2.82297 1.42871 3.24516 1.42871H12.7962C13.2184 1.42871 13.6232 1.59643 13.9218 1.89494C14.2203 2.19348 14.388 2.59836 14.388 3.02055V14.1634" stroke="white" stroke-width="1.5" stroke-linecap="round" stroke-linejoin="round" />
  <path d="M13.5919 14.1636H9.6123" stroke="white" stroke-width="1.5" stroke-linecap="round" stroke-linejoin="round" />
  <path d="M17.1739 17.3473C15.6354 17.3473 14.3882 16.1001 14.3882 14.5616C14.3882 13.0231 15.6354 11.7759 17.1739 11.7759C18.7124 11.7759 19.9596 13.0231 19.9596 14.5616C19.9596 16.1001 18.7124 17.3473 17.1739 17.3473Z" stroke="white" stroke-width="1.5" stroke-linecap="round" stroke-linejoin="round" />
  <path d="M6.42878 17.3473C4.89027 17.3473 3.64307 16.1001 3.64307 14.5616C3.64307 13.0231 4.89027 11.7759 6.42878 11.7759C7.96729 11.7759 9.2145 13.0231 9.2145 14.5616C9.2145 16.1001 7.96729 17.3473 6.42878 17.3473Z" stroke="white" stroke-width="1.5" stroke-linecap="round" stroke-linejoin="round" />
</svg>