<svg width="20" height="20" viewBox="0 0 20 20" fill="none" xmlns="http://www.w3.org/2000/svg">
  <path fill-rule="evenodd" clip-rule="evenodd" d="M15.2124 12.2204L15.431 10.6495C15.4983 10.1662 15.5598 9.72438 15.6145 9.31907C15.7268 8.48615 15.7829 8.06969 15.5339 7.78482C15.2849 7.49996 14.8569 7.49996 14.0009 7.49996H5.99924C5.14322 7.49996 4.71521 7.49996 4.46619 7.78482C4.21716 8.06969 4.27332 8.48615 4.38564 9.31907C4.44032 9.7245 4.50176 10.166 4.56905 10.6495L4.78766 12.2204C5.02526 13.9277 5.14406 14.7813 5.39595 15.4669C5.86699 16.749 6.68124 17.7039 7.65309 18.114C8.17279 18.3333 8.78189 18.3333 10.0001 18.3333C11.2182 18.3333 11.8273 18.3333 12.347 18.114C13.3189 17.7039 14.1331 16.749 14.6041 15.4669C14.856 14.7813 14.9748 13.9277 15.2124 12.2204ZM8.95837 9.16663C8.95837 8.82145 8.67855 8.54163 8.33337 8.54163C7.9882 8.54163 7.70837 8.82145 7.70837 9.16663V15.8333C7.70837 16.1785 7.9882 16.4583 8.33337 16.4583C8.67855 16.4583 8.95837 16.1785 8.95837 15.8333V9.16663ZM12.2917 9.16663C12.2917 8.82145 12.0119 8.54163 11.6667 8.54163C11.3215 8.54163 11.0417 8.82145 11.0417 9.16663V15.8333C11.0417 16.1785 11.3215 16.4583 11.6667 16.4583C12.0119 16.4583 12.2917 16.1785 12.2917 15.8333V9.16663Z" fill="#282735" />
  <path d="M10 1.04163C7.81391 1.04163 6.04171 2.81383 6.04171 4.99996V5.20829H3.33337C2.9882 5.20829 2.70837 5.48811 2.70837 5.83329C2.70837 6.17847 2.9882 6.45829 3.33337 6.45829H16.6667C17.0119 6.45829 17.2917 6.17847 17.2917 5.83329C17.2917 5.48811 17.0119 5.20829 16.6667 5.20829H13.9584V4.99996C13.9584 2.81383 12.1862 1.04163 10 1.04163Z" fill="#282735" />
</svg>