<svg width="24" height="20" viewBox="0 0 24 20" fill="none" xmlns="http://www.w3.org/2000/svg">
  <path d="M2.4 15.6C1.07438 15.6 0 14.5238 0 13.2V2.4C0 1.07438 1.07438 0 2.4 0H13.2C14.5238 0 15.6 1.07438 15.6 2.4V3.6H18.0487C18.5737 3.6 19.0725 3.82875 19.4138 4.23L22.365 7.6725C22.6463 7.99875 22.8 8.415 22.8 8.8425V14.4H23.4C23.73 14.4 24 14.67 24 15C24 15.33 23.73 15.6 23.4 15.6H21.6C21.6 17.5875 19.9875 19.2 18 19.2C15.9788 19.2 14.4 17.5875 14.4 15.6H9.56625C9.56625 17.5875 7.9875 19.2 5.96625 19.2C3.97875 19.2 2.36625 17.5875 2.36625 15.6H2.4ZM1.2 2.4V13.2C1.2 13.8638 1.73738 14.4 2.4 14.4H2.60475C3.099 13.0013 4.4325 12 6 12C7.5675 12 8.9025 13.0013 9.39375 14.4H14.4V2.4C14.4 1.73738 13.8638 1.2 13.2 1.2H2.4C1.73738 1.2 1.2 1.73738 1.2 2.4ZM21.4088 8.4L18.5025 5.01C18.39 4.875 18.1912 4.8 18.0487 4.8H15.6V8.4H21.4088ZM15.6 9.6V12.915C16.2038 12.345 17.0775 12 18 12C19.5675 12 20.9025 13.0013 21.3938 14.4H21.6V9.6H15.6ZM6 13.2C4.67625 13.2 3.6 14.2763 3.6 15.6C3.6 16.9237 4.67625 18 6 18C7.32375 18 8.4 16.9237 8.4 15.6C8.4 14.2763 7.32375 13.2 6 13.2ZM18 18C19.3238 18 20.4 16.9237 20.4 15.6C20.4 14.2763 19.3238 13.2 18 13.2C16.6763 13.2 15.6 14.2763 15.6 15.6C15.6 16.9237 16.6763 18 18 18Z" fill="#8653D4" />
</svg>