<svg width="31" height="24" viewBox="0 0 31 24" fill="none" xmlns="http://www.w3.org/2000/svg">
  <path d="M3.3335 19.5C1.67646 19.5 0.333496 18.1547 0.333496 16.5V3C0.333496 1.34297 1.67646 0 3.3335 0H16.8335C18.4882 0 19.8335 1.34297 19.8335 3V4.5H22.8944C23.5507 4.5 24.1741 4.78594 24.6007 5.2875L28.2897 9.59063C28.6413 9.99844 28.8335 10.5188 28.8335 11.0531V18H29.5835C29.996 18 30.3335 18.3375 30.3335 18.75C30.3335 19.1625 29.996 19.5 29.5835 19.5H27.3335C27.3335 21.9844 25.3179 24 22.8335 24C20.3069 24 18.3335 21.9844 18.3335 19.5H12.2913C12.2913 21.9844 10.3179 24 7.79131 24C5.30693 24 3.29131 21.9844 3.29131 19.5H3.3335ZM1.8335 3V16.5C1.8335 17.3297 2.50521 18 3.3335 18H3.58943C4.20725 16.2516 5.87412 15 7.8335 15C9.79287 15 11.4616 16.2516 12.0757 18H18.3335V3C18.3335 2.17172 17.6632 1.5 16.8335 1.5H3.3335C2.50521 1.5 1.8335 2.17172 1.8335 3ZM27.0944 10.5L23.4616 6.2625C23.321 6.09375 23.0726 6 22.8944 6H19.8335V10.5H27.0944ZM19.8335 12V16.1437C20.5882 15.4312 21.6804 15 22.8335 15C24.7929 15 26.4616 16.2516 27.0757 18H27.3335V12H19.8335ZM7.8335 16.5C6.17881 16.5 4.8335 17.8453 4.8335 19.5C4.8335 21.1547 6.17881 22.5 7.8335 22.5C9.48818 22.5 10.8335 21.1547 10.8335 19.5C10.8335 17.8453 9.48818 16.5 7.8335 16.5ZM22.8335 22.5C24.4882 22.5 25.8335 21.1547 25.8335 19.5C25.8335 17.8453 24.4882 16.5 22.8335 16.5C21.1788 16.5 19.8335 17.8453 19.8335 19.5C19.8335 21.1547 21.1788 22.5 22.8335 22.5Z" fill="#8653D4" />
</svg>