<svg width="20" height="22" viewBox="0 0 20 22" fill="none" xmlns="http://www.w3.org/2000/svg">
  <path d="M17.2178 6.93844L17.1005 7.67921H17.1005L17.2178 6.93844ZM13.0616 2.78217L12.3208 2.8995V2.8995L13.0616 2.78217ZM3.06107 20.0451L3.50191 19.4383L3.06107 20.0451ZM1.95491 18.9389L2.56168 18.4981L1.95491 18.9389ZM18.0451 18.9389L17.4383 18.4981L18.0451 18.9389ZM16.9389 20.0451L16.4981 19.4383L16.9389 20.0451ZM16.9389 1.95491L17.3798 1.34815L16.9389 1.95491ZM18.0451 3.06107L18.6518 2.62023L18.0451 3.06107ZM3.06107 1.95491L3.50191 2.56168L3.06107 1.95491ZM1.95491 3.06107L2.56168 3.50191L1.95491 3.06107ZM13 1.02893L13.0257 0.279368L13 1.02893ZM18.9711 7L19.7206 6.97432L18.9711 7ZM6 14.25C5.58579 14.25 5.25 14.5858 5.25 15C5.25 15.4142 5.58579 15.75 6 15.75V14.25ZM9 15.75C9.41421 15.75 9.75 15.4142 9.75 15C9.75 14.5858 9.41421 14.25 9 14.25V15.75ZM6 10.25C5.58579 10.25 5.25 10.5858 5.25 11C5.25 11.4142 5.58579 11.75 6 11.75V10.25ZM14 11.75C14.4142 11.75 14.75 11.4142 14.75 11C14.75 10.5858 14.4142 10.25 14 10.25V11.75ZM6 6.25C5.58579 6.25 5.25 6.58579 5.25 7C5.25 7.41421 5.58579 7.75 6 7.75V6.25ZM9 7.75C9.41421 7.75 9.75 7.41421 9.75 7C9.75 6.58579 9.41421 6.25 9 6.25V7.75ZM17.3352 6.19768C15.5166 5.90965 14.0904 4.48339 13.8023 2.66485L12.3208 2.8995C12.7105 5.35988 14.6401 7.28952 17.1005 7.67921L17.3352 6.19768ZM18.25 10V12H19.75V10H18.25ZM1.75 12V10H0.25V12H1.75ZM10 20.25C8.10843 20.25 6.74999 20.249 5.69804 20.135C4.66013 20.0225 4.00992 19.8074 3.50191 19.4383L2.62023 20.6518C3.42656 21.2377 4.37094 21.5 5.53648 21.6263C6.68798 21.751 8.14184 21.75 10 21.75V20.25ZM0.25 12C0.25 13.8582 0.248971 15.312 0.373728 16.4635C0.500006 17.6291 0.762324 18.5734 1.34815 19.3798L2.56168 18.4981C2.19259 17.9901 1.97745 17.3399 1.865 16.302C1.75103 15.25 1.75 13.8916 1.75 12H0.25ZM3.50191 19.4383C3.14111 19.1762 2.82382 18.8589 2.56168 18.4981L1.34815 19.3798C1.70281 19.8679 2.13209 20.2972 2.62023 20.6518L3.50191 19.4383ZM18.25 12C18.25 13.8916 18.249 15.25 18.135 16.302C18.0225 17.3399 17.8074 17.9901 17.4383 18.4981L18.6518 19.3798C19.2377 18.5734 19.5 17.6291 19.6263 16.4635C19.751 15.312 19.75 13.8582 19.75 12H18.25ZM10 21.75C11.8582 21.75 13.312 21.751 14.4635 21.6263C15.6291 21.5 16.5734 21.2377 17.3798 20.6518L16.4981 19.4383C15.9901 19.8074 15.3399 20.0225 14.302 20.135C13.25 20.249 11.8916 20.25 10 20.25V21.75ZM17.4383 18.4981C17.1762 18.8589 16.8589 19.1762 16.4981 19.4383L17.3798 20.6518C17.8679 20.2972 18.2972 19.8679 18.6518 19.3798L17.4383 18.4981ZM16.4981 2.56168C16.8589 2.82382 17.1762 3.14111 17.4383 3.50191L18.6518 2.62023C18.2972 2.13209 17.8679 1.70281 17.3798 1.34815L16.4981 2.56168ZM10 0.25C8.14184 0.25 6.68798 0.248971 5.53648 0.373728C4.37094 0.500006 3.42656 0.762324 2.62023 1.34815L3.50191 2.56168C4.00992 2.19259 4.66013 1.97745 5.69804 1.865C6.74999 1.75103 8.10843 1.75 10 1.75V0.25ZM1.75 10C1.75 8.10843 1.75103 6.74999 1.865 5.69804C1.97745 4.66013 2.19259 4.00992 2.56168 3.50191L1.34815 2.62023C0.762324 3.42656 0.500006 4.37094 0.373728 5.53648C0.248971 6.68798 0.25 8.14184 0.25 10H1.75ZM2.62023 1.34815C2.13209 1.70281 1.70281 2.13209 1.34815 2.62023L2.56168 3.50191C2.82382 3.14111 3.14111 2.82382 3.50191 2.56168L2.62023 1.34815ZM10 1.75C11.1731 1.75 12.1456 1.75009 12.9743 1.77849L13.0257 0.279368C12.1658 0.249906 11.1648 0.25 10 0.25V1.75ZM12.9743 1.77849C14.8292 1.84204 15.7925 2.04907 16.4981 2.56168L17.3798 1.34815C16.2761 0.546296 14.8991 0.343555 13.0257 0.279368L12.9743 1.77849ZM12.25 1.02893C12.25 1.91121 12.2484 2.44215 12.3208 2.8995L13.8023 2.66485C13.7529 2.35298 13.75 1.96617 13.75 1.02892L12.25 1.02893ZM19.75 10C19.75 8.83522 19.7501 7.83424 19.7206 6.97432L18.2215 7.02568C18.2499 7.85445 18.25 8.82692 18.25 10H19.75ZM19.7206 6.97432C19.6564 5.10087 19.4537 3.7239 18.6518 2.62023L17.4383 3.50191C17.9509 4.20746 18.158 5.17075 18.2215 7.02568L19.7206 6.97432ZM18.9711 6.25C18.0338 6.24999 17.647 6.24707 17.3352 6.19768L17.1005 7.67921C17.5579 7.75165 18.0888 7.74999 18.9711 7.75L18.9711 6.25ZM6 15.75H9V14.25H6V15.75ZM6 11.75H14V10.25H6V11.75ZM6 7.75H9V6.25H6V7.75Z" fill="white" />
</svg>