<svg width="20" height="20" viewBox="0 0 20 20" fill="none" xmlns="http://www.w3.org/2000/svg">
  <path d="M13.5033 3.81284L13.5784 3.85617C14.2268 4.23051 14.7675 4.54267 15.1634 4.84821C15.5813 5.1707 15.913 5.54087 16.052 6.05935C16.1909 6.57784 16.0887 7.06425 15.888 7.55249C15.7488 7.89138 15.544 8.2722 15.2972 8.70659L14.7677 8.39192L14.7609 8.38792L8.98983 5.05598L8.45013 4.73789C8.7002 4.31198 8.92552 3.94821 9.14735 3.66075C9.46985 3.24285 9.84001 2.91116 10.3585 2.77223C10.877 2.6333 11.3634 2.73548 11.8516 2.93614C12.3142 3.12625 12.8549 3.43845 13.5033 3.81284Z" fill="#8653D4" />
  <path d="M7.82394 5.81978L4.92563 10.8397C4.67748 11.2687 4.48126 11.6079 4.40856 11.9938C4.33587 12.3796 4.39519 12.767 4.47021 13.2569L4.49043 13.3893C4.62892 14.2987 4.74307 15.0484 4.91523 15.6168C5.09529 16.2114 5.37209 16.726 5.91648 17.0403C6.46087 17.3546 7.04493 17.337 7.64983 17.1957C8.22822 17.0605 8.9345 16.7846 9.79136 16.4498L9.91615 16.4011C10.3779 16.2211 10.743 16.0788 11.0408 15.8229C11.3386 15.567 11.5343 15.2275 11.7817 14.7981L14.6732 9.78985L14.1325 9.46847L8.35755 6.13431L7.82394 5.81978Z" fill="#8653D4" />
</svg>