<svg width="20" height="21" viewBox="0 0 20 21" fill="none" xmlns="http://www.w3.org/2000/svg">
  <g clip-path="url(#clip0_41_6672)">
    <path d="M19.3924 8.34907C18.0999 6.24407 15.1599 2.7124 9.99992 2.7124C4.83992 2.7124 1.89992 6.24407 0.607421 8.34907C0.207861 8.99532 -0.00378418 9.7401 -0.00378418 10.4999C-0.00378418 11.2597 0.207861 12.0045 0.607421 12.6507C1.89992 14.7557 4.83992 18.2874 9.99992 18.2874C15.1599 18.2874 18.0999 14.7557 19.3924 12.6507C19.792 12.0045 20.0036 11.2597 20.0036 10.4999C20.0036 9.7401 19.792 8.99532 19.3924 8.34907V8.34907ZM17.9716 11.7782C16.8616 13.5832 14.3491 16.6207 9.99992 16.6207C5.65075 16.6207 3.13825 13.5832 2.02825 11.7782C1.79087 11.3941 1.66513 10.9515 1.66513 10.4999C1.66513 10.0483 1.79087 9.6057 2.02825 9.22157C3.13825 7.41657 5.65075 4.37907 9.99992 4.37907C14.3491 4.37907 16.8616 7.41324 17.9716 9.22157C18.209 9.6057 18.3347 10.0483 18.3347 10.4999C18.3347 10.9515 18.209 11.3941 17.9716 11.7782V11.7782Z" fill="#8653D4" />
    <path d="M9.99986 6.33325C9.17577 6.33325 8.37019 6.57762 7.68498 7.03546C6.99978 7.4933 6.46573 8.14405 6.15036 8.9054C5.835 9.66676 5.75248 10.5045 5.91325 11.3128C6.07403 12.121 6.47086 12.8635 7.05358 13.4462C7.6363 14.0289 8.37873 14.4258 9.18698 14.5865C9.99524 14.7473 10.833 14.6648 11.5944 14.3494C12.3557 14.0341 13.0065 13.5 13.4643 12.8148C13.9222 12.1296 14.1665 11.324 14.1665 10.4999C14.1652 9.39526 13.7258 8.33622 12.9447 7.5551C12.1636 6.77399 11.1045 6.33458 9.99986 6.33325V6.33325ZM9.99986 12.9999C9.50541 12.9999 9.02206 12.8533 8.61093 12.5786C8.19981 12.3039 7.87938 11.9134 7.69016 11.4566C7.50094 10.9998 7.45143 10.4971 7.5479 10.0122C7.64436 9.52724 7.88246 9.08178 8.23209 8.73215C8.58172 8.38252 9.02718 8.14442 9.51213 8.04796C9.99709 7.95149 10.4998 8.001 10.9566 8.19022C11.4134 8.37944 11.8038 8.69987 12.0785 9.11099C12.3532 9.52212 12.4999 10.0055 12.4999 10.4999C12.4999 11.163 12.2365 11.7988 11.7676 12.2677C11.2988 12.7365 10.6629 12.9999 9.99986 12.9999Z" fill="#8653D4" />
  </g>
  <defs>
    <clipPath id="clip0_41_6672">
      <rect width="20" height="20" fill="white" transform="translate(0 0.5)" />
    </clipPath>
  </defs>
</svg>