<svg width="20" height="20" viewBox="0 0 20 20" fill="none" xmlns="http://www.w3.org/2000/svg">
  <path d="M3.06107 18.0451L3.50191 17.4383L3.06107 18.0451ZM1.95491 16.9389L2.56168 16.4981L1.95491 16.9389ZM18.0451 16.9389L17.4383 16.4981L18.0451 16.9389ZM16.9389 18.0451L16.4981 17.4383L16.9389 18.0451ZM16.9389 1.95491L16.4981 2.56168L16.9389 1.95491ZM18.0451 3.06107L17.4383 3.50191L18.0451 3.06107ZM3.06107 1.95491L3.50191 2.56168L3.06107 1.95491ZM1.95491 3.06107L2.56168 3.50191L1.95491 3.06107ZM10.75 6C10.75 5.58579 10.4142 5.25 10 5.25C9.58579 5.25 9.25 5.58579 9.25 6H10.75ZM14.5327 11.328C14.8243 11.0338 14.8222 10.5589 14.528 10.2673C14.2338 9.97573 13.7589 9.97784 13.4673 10.272L14.5327 11.328ZM12.6022 12.2104L12.0695 11.6824L12.6022 12.2104ZM7.39785 12.2104L6.86516 12.7383H6.86516L7.39785 12.2104ZM6.53269 10.272C6.24111 9.97784 5.76624 9.97573 5.47204 10.2673C5.17784 10.5589 5.17573 11.0338 5.46731 11.328L6.53269 10.272ZM10.2507 13.9841L10.3455 14.7281L10.3455 14.7281L10.2507 13.9841ZM9.74933 13.9841L9.6545 14.7281L9.65451 14.7281L9.74933 13.9841ZM10 18.25C8.10843 18.25 6.74999 18.249 5.69804 18.135C4.66013 18.0225 4.00992 17.8074 3.50191 17.4383L2.62023 18.6518C3.42656 19.2377 4.37094 19.5 5.53648 19.6263C6.68798 19.751 8.14184 19.75 10 19.75V18.25ZM0.25 10C0.25 11.8582 0.248971 13.312 0.373728 14.4635C0.500006 15.6291 0.762324 16.5734 1.34815 17.3798L2.56168 16.4981C2.19259 15.9901 1.97745 15.3399 1.865 14.302C1.75103 13.25 1.75 11.8916 1.75 10H0.25ZM3.50191 17.4383C3.14111 17.1762 2.82382 16.8589 2.56168 16.4981L1.34815 17.3798C1.70281 17.8679 2.13209 18.2972 2.62023 18.6518L3.50191 17.4383ZM18.25 10C18.25 11.8916 18.249 13.25 18.135 14.302C18.0225 15.3399 17.8074 15.9901 17.4383 16.4981L18.6518 17.3798C19.2377 16.5734 19.5 15.6291 19.6263 14.4635C19.751 13.312 19.75 11.8582 19.75 10H18.25ZM10 19.75C11.8582 19.75 13.312 19.751 14.4635 19.6263C15.6291 19.5 16.5734 19.2377 17.3798 18.6518L16.4981 17.4383C15.9901 17.8074 15.3399 18.0225 14.302 18.135C13.25 18.249 11.8916 18.25 10 18.25V19.75ZM17.4383 16.4981C17.1762 16.8589 16.8589 17.1762 16.4981 17.4383L17.3798 18.6518C17.8679 18.2972 18.2972 17.8679 18.6518 17.3798L17.4383 16.4981ZM10 1.75C11.8916 1.75 13.25 1.75103 14.302 1.865C15.3399 1.97745 15.9901 2.19259 16.4981 2.56168L17.3798 1.34815C16.5734 0.762324 15.6291 0.500006 14.4635 0.373728C13.312 0.248971 11.8582 0.25 10 0.25V1.75ZM19.75 10C19.75 8.14184 19.751 6.68798 19.6263 5.53648C19.5 4.37094 19.2377 3.42656 18.6518 2.62023L17.4383 3.50191C17.8074 4.00992 18.0225 4.66013 18.135 5.69804C18.249 6.74999 18.25 8.10843 18.25 10H19.75ZM16.4981 2.56168C16.8589 2.82382 17.1762 3.14111 17.4383 3.50191L18.6518 2.62023C18.2972 2.13209 17.8679 1.70281 17.3798 1.34815L16.4981 2.56168ZM10 0.25C8.14184 0.25 6.68798 0.248971 5.53648 0.373728C4.37094 0.500006 3.42656 0.762324 2.62023 1.34815L3.50191 2.56168C4.00992 2.19259 4.66013 1.97745 5.69804 1.865C6.74999 1.75103 8.10843 1.75 10 1.75V0.25ZM1.75 10C1.75 8.10843 1.75103 6.74999 1.865 5.69804C1.97745 4.66013 2.19259 4.00992 2.56168 3.50191L1.34815 2.62023C0.762324 3.42656 0.500006 4.37094 0.373728 5.53648C0.248971 6.68798 0.25 8.14184 0.25 10H1.75ZM2.62023 1.34815C2.13209 1.70281 1.70281 2.13209 1.34815 2.62023L2.56168 3.50191C2.82382 3.14111 3.14111 2.82382 3.50191 2.56168L2.62023 1.34815ZM13.4673 10.272L12.0695 11.6824L13.1348 12.7383L14.5327 11.328L13.4673 10.272ZM7.93054 11.6824L6.53269 10.272L5.46731 11.328L6.86516 12.7383L7.93054 11.6824ZM12.0695 11.6824C11.4997 12.2573 11.1161 12.6427 10.7935 12.9018C10.4827 13.1514 10.302 13.2215 10.1558 13.2401L10.3455 14.7281C10.8787 14.6601 11.3163 14.4057 11.7328 14.0713C12.1373 13.7464 12.5899 13.2882 13.1348 12.7383L12.0695 11.6824ZM6.86516 12.7383C7.41012 13.2882 7.86265 13.7464 8.26724 14.0713C8.68366 14.4057 9.12131 14.6601 9.6545 14.7281L9.84416 13.2401C9.698 13.2215 9.51728 13.1514 9.20649 12.9018C8.88386 12.6427 8.50033 12.2573 7.93054 11.6824L6.86516 12.7383ZM10.1558 13.2401C10.1041 13.2467 10.052 13.25 10 13.25V14.75C10.1154 14.75 10.2308 14.7427 10.3455 14.7281L10.1558 13.2401ZM10 13.25C9.94795 13.25 9.89591 13.2467 9.84416 13.2401L9.65451 14.7281C9.76921 14.7427 9.8846 14.75 10 14.75V13.25ZM9.25 6V14H10.75V6H9.25Z" fill="white" />
</svg>