<svg width="19" height="19" viewBox="0 0 19 19" fill="none" xmlns="http://www.w3.org/2000/svg">
  <path d="M1.5 4.5C1.5 3.56812 1.5 3.10218 1.65224 2.73463C1.85523 2.24458 2.24458 1.85523 2.73463 1.65224C3.10218 1.5 3.56812 1.5 4.5 1.5C5.43188 1.5 5.89782 1.5 6.26537 1.65224C6.75542 1.85523 7.14477 2.24458 7.34776 2.73463C7.5 3.10218 7.5 3.56812 7.5 4.5C7.5 5.43188 7.5 5.89782 7.34776 6.26537C7.14477 6.75542 6.75542 7.14477 6.26537 7.34776C5.89782 7.5 5.43188 7.5 4.5 7.5C3.56812 7.5 3.10218 7.5 2.73463 7.34776C2.24458 7.14477 1.85523 6.75542 1.65224 6.26537C1.5 5.89782 1.5 5.43188 1.5 4.5Z" stroke="white" stroke-width="1.5" />
  <path d="M11.5 4.5C11.5 3.56812 11.5 3.10218 11.6522 2.73463C11.8552 2.24458 12.2446 1.85523 12.7346 1.65224C13.1022 1.5 13.5681 1.5 14.5 1.5C15.4319 1.5 15.8978 1.5 16.2654 1.65224C16.7554 1.85523 17.1448 2.24458 17.3478 2.73463C17.5 3.10218 17.5 3.56812 17.5 4.5C17.5 5.43188 17.5 5.89782 17.3478 6.26537C17.1448 6.75542 16.7554 7.14477 16.2654 7.34776C15.8978 7.5 15.4319 7.5 14.5 7.5C13.5681 7.5 13.1022 7.5 12.7346 7.34776C12.2446 7.14477 11.8552 6.75542 11.6522 6.26537C11.5 5.89782 11.5 5.43188 11.5 4.5Z" stroke="white" stroke-width="1.5" />
  <path d="M1.5 14.5C1.5 13.5681 1.5 13.1022 1.65224 12.7346C1.85523 12.2446 2.24458 11.8552 2.73463 11.6522C3.10218 11.5 3.56812 11.5 4.5 11.5C5.43188 11.5 5.89782 11.5 6.26537 11.6522C6.75542 11.8552 7.14477 12.2446 7.34776 12.7346C7.5 13.1022 7.5 13.5681 7.5 14.5C7.5 15.4319 7.5 15.8978 7.34776 16.2654C7.14477 16.7554 6.75542 17.1448 6.26537 17.3478C5.89782 17.5 5.43188 17.5 4.5 17.5C3.56812 17.5 3.10218 17.5 2.73463 17.3478C2.24458 17.1448 1.85523 16.7554 1.65224 16.2654C1.5 15.8978 1.5 15.4319 1.5 14.5Z" stroke="white" stroke-width="1.5" />
  <path d="M11.5 14.5C11.5 13.5681 11.5 13.1022 11.6522 12.7346C11.8552 12.2446 12.2446 11.8552 12.7346 11.6522C13.1022 11.5 13.5681 11.5 14.5 11.5C15.4319 11.5 15.8978 11.5 16.2654 11.6522C16.7554 11.8552 17.1448 12.2446 17.3478 12.7346C17.5 13.1022 17.5 13.5681 17.5 14.5C17.5 15.4319 17.5 15.8978 17.3478 16.2654C17.1448 16.7554 16.7554 17.1448 16.2654 17.3478C15.8978 17.5 15.4319 17.5 14.5 17.5C13.5681 17.5 13.1022 17.5 12.7346 17.3478C12.2446 17.1448 11.8552 16.7554 11.6522 16.2654C11.5 15.8978 11.5 15.4319 11.5 14.5Z" stroke="white" stroke-width="1.5" />
</svg>