<svg width="24" height="24" viewBox="0 0 24 24" fill="none" xmlns="http://www.w3.org/2000/svg">
  <path d="M3 10.2107C3 9.25717 3.45332 8.36041 4.22115 7.795L12.0909 2L19.9607 7.795C20.7285 8.36041 21.1818 9.25717 21.1818 10.2107V19.5C21.1818 20.8807 20.0625 22 18.6818 22H15.8182C15.2659 22 14.8182 21.5523 14.8182 21V15.6818C14.8182 15.4057 14.5943 15.1818 14.3182 15.1818H9.86364C9.58749 15.1818 9.36364 15.4057 9.36364 15.6818V21C9.36364 21.5523 8.91592 22 8.36364 22H5.5C4.11929 22 3 20.8807 3 19.5V10.2107Z" stroke="white" stroke-width="1.5" stroke-linecap="round" stroke-linejoin="round" />
</svg>