<svg width="16" height="18" viewBox="0 0 16 18" fill="none" xmlns="http://www.w3.org/2000/svg">
  <path fill-rule="evenodd" clip-rule="evenodd" d="M15.5 8.16663V9.83329C15.5 12.9581 15.5 14.5205 14.7042 15.6157C14.4472 15.9695 14.1362 16.2805 13.7824 16.5375C12.6872 17.3333 11.1248 17.3333 8 17.3333C4.87522 17.3333 3.31284 17.3333 2.21756 16.5375C1.86383 16.2805 1.55276 15.9695 1.29576 15.6157C0.5 14.5205 0.5 12.9581 0.5 9.83329V8.16663C0.5 7.46751 0.5 6.8466 0.508912 6.29163L0.56735 6.29163C1.27736 6.29169 1.70985 6.29172 2.08291 6.23263C4.13323 5.90789 5.74127 4.29986 6.06601 2.24954C6.12509 1.87648 6.12506 1.44399 6.125 0.733976L6.125 0.675538C6.67997 0.666626 7.30088 0.666626 8 0.666626C11.1248 0.666626 12.6872 0.666626 13.7824 1.46239C14.1362 1.71939 14.4472 2.03046 14.7042 2.38419C15.5 3.47946 15.5 5.04185 15.5 8.16663ZM8.625 6.49996C8.625 6.15478 8.34518 5.87496 8 5.87496C7.65482 5.87496 7.375 6.15478 7.375 6.49996V12.2801C7.36315 12.2709 7.35107 12.2613 7.33874 12.2514C7.06989 12.0355 6.75027 11.7144 6.27545 11.2353L5.11058 10.06C4.86759 9.81483 4.47187 9.81306 4.2267 10.0561C3.98154 10.299 3.97977 10.6948 4.22276 10.9399L5.41303 12.1409C5.85586 12.5877 6.22518 12.9603 6.55604 13.2261C6.90306 13.5047 7.26776 13.7167 7.71209 13.7733C7.90326 13.7977 8.09674 13.7977 8.28791 13.7734C8.73224 13.7167 9.09695 13.5047 9.44396 13.2261C9.77481 12.9604 10.1441 12.5877 10.5869 12.1409L11.7772 10.9399C12.0202 10.6948 12.0185 10.299 11.7733 10.0561C11.5281 9.81306 11.1324 9.81483 10.8894 10.06L9.72455 11.2353C9.24972 11.7144 8.93011 12.0355 8.66126 12.2514C8.64893 12.2613 8.63685 12.2709 8.625 12.2801V6.49996Z" fill="#54B800" />
  <path d="M1.88737 4.99802C1.63038 5.03872 1.31306 5.04151 0.554447 5.04162C0.63312 3.84194 0.825472 3.03149 1.29576 2.38419C1.55276 2.03046 1.86383 1.71939 2.21756 1.46239C2.86486 0.992098 3.67531 0.799746 4.875 0.721073C4.87489 1.47969 4.8721 1.797 4.8314 2.054C4.59137 3.56945 3.40282 4.758 1.88737 4.99802Z" fill="#54B800" />
</svg>