<svg width="16" height="16" viewBox="0 0 16 16" fill="none" xmlns="http://www.w3.org/2000/svg">
  <path fill-rule="evenodd" clip-rule="evenodd" d="M1.62901 2.21756C0.833252 3.31283 0.833252 4.87522 0.833252 8C0.833252 11.1248 0.833252 12.6872 1.62901 13.7824C1.88601 14.1362 2.19709 14.4472 2.55081 14.7042C3.64609 15.5 5.20848 15.5 8.33325 15.5C11.458 15.5 13.0204 15.5 14.1157 14.7042C14.4694 14.4472 14.7805 14.1362 15.0375 13.7824C15.8333 12.6872 15.8333 11.1248 15.8333 8C15.8333 4.87522 15.8333 3.31283 15.0375 2.21756C14.7805 1.86383 14.4694 1.55276 14.1157 1.29576C13.0204 0.5 11.458 0.5 8.33325 0.5C5.20848 0.5 3.64609 0.5 2.55081 1.29576C2.19709 1.55276 1.88601 1.86383 1.62901 2.21756ZM12.9656 5.91689C13.1958 5.65972 13.174 5.2646 12.9168 5.03435C12.6596 4.80411 12.2645 4.82594 12.0343 5.08311L9.22663 8.21909C8.65771 8.85454 8.27458 9.28023 7.94702 9.55555C7.63497 9.81783 7.45169 9.875 7.29158 9.875C7.13148 9.875 6.9482 9.81783 6.63615 9.55555C6.30859 9.28023 5.92546 8.85454 5.35654 8.21909L4.63223 7.41008C4.40199 7.15291 4.00686 7.13108 3.74969 7.36132C3.49252 7.59157 3.4707 7.98669 3.70094 8.24386L4.45619 9.08744C4.98606 9.67931 5.42804 10.173 5.83188 10.5124C6.25908 10.8715 6.71986 11.125 7.29158 11.125C7.86331 11.125 8.32409 10.8715 8.75129 10.5124C9.15513 10.173 9.5971 9.67933 10.127 9.08744L12.9656 5.91689Z" fill="#54B800" />
</svg>