<svg width="18" height="17" viewBox="0 0 18 17" fill="none" xmlns="http://www.w3.org/2000/svg">
  <path fill-rule="evenodd" clip-rule="evenodd" d="M3.55976 6.49996C5.45441 3.21832 6.40174 1.57751 7.63853 1.02685C8.7173 0.54655 9.94922 0.54655 11.028 1.02685C12.2648 1.57751 13.2121 3.21832 15.1068 6.49996C17.0014 9.78159 17.9487 11.4224 17.8072 12.7688C17.6838 13.9432 17.0678 15.0101 16.1125 15.7042C15.0172 16.5 13.1226 16.5 9.33326 16.5C5.54395 16.5 3.6493 16.5 2.55403 15.7042C1.59868 15.0101 0.982727 13.9432 0.859292 12.7688C0.717778 11.4224 1.6651 9.78159 3.55976 6.49996ZM9.33321 4.20829C9.67839 4.20829 9.95821 4.48811 9.95821 4.83329V9.83329C9.95821 10.1785 9.67839 10.4583 9.33321 10.4583C8.98803 10.4583 8.70821 10.1785 8.70821 9.83329V4.83329C8.70821 4.48811 8.98803 4.20829 9.33321 4.20829ZM9.33321 13.1666C9.79345 13.1666 10.1665 12.7935 10.1665 12.3333C10.1665 11.8731 9.79345 11.5 9.33321 11.5C8.87297 11.5 8.49988 11.8731 8.49988 12.3333C8.49988 12.7935 8.87297 13.1666 9.33321 13.1666Z" fill="#FF7701" />
</svg>