<svg width="20" height="20" viewBox="0 0 20 20" fill="none" xmlns="http://www.w3.org/2000/svg">
  <path d="M6.45833 9.16667C6.45833 9.05161 6.55161 8.95833 6.66667 8.95833H7.93581C8.02099 8.95833 8.0976 9.0102 8.12924 9.08929L8.46257 9.92263C8.47251 9.94747 8.47747 9.97371 8.47747 10C8.47747 10.0263 8.47251 10.0525 8.46257 10.0774L8.12924 10.9107C8.0976 10.9898 8.02099 11.0417 7.93581 11.0417H6.66667C6.55161 11.0417 6.45833 10.9484 6.45833 10.8333V9.16667Z" fill="#FF7701" />
  <path fill-rule="evenodd" clip-rule="evenodd" d="M3.29576 4.21756C2.5 5.31283 2.5 6.87522 2.5 10C2.5 13.1248 2.5 14.6872 3.29576 15.7824C3.55276 16.1362 3.86383 16.4472 4.21756 16.7042C5.31283 17.5 6.87522 17.5 10 17.5C13.1248 17.5 14.6872 17.5 15.7824 16.7042C16.1362 16.4472 16.4472 16.1362 16.7042 15.7824C17.5 14.6872 17.5 13.1248 17.5 10C17.5 6.87522 17.5 5.31283 16.7042 4.21756C16.4472 3.86383 16.1362 3.55276 15.7824 3.29576C14.6872 2.5 13.1248 2.5 10 2.5C6.87522 2.5 5.31283 2.5 4.21756 3.29576C3.86383 3.55276 3.55276 3.86383 3.29576 4.21756ZM6.66667 7.70833C5.86125 7.70833 5.20833 8.36125 5.20833 9.16667V10.8333C5.20833 11.6387 5.86125 12.2917 6.66667 12.2917H7.93581C8.53213 12.2917 9.06837 11.9286 9.28983 11.3749L9.58981 10.625H11.2406C11.2867 10.8508 11.257 11.0884 11.1516 11.2992L11.1077 11.3872C10.9533 11.6959 11.0784 12.0713 11.3872 12.2257C11.6959 12.3801 12.0713 12.2549 12.2257 11.9462L12.2697 11.8582C12.4629 11.4717 12.5404 11.0443 12.5021 10.625H13.7406C13.7867 10.8508 13.757 11.0884 13.6516 11.2992L13.6077 11.3872C13.4533 11.6959 13.5784 12.0713 13.8872 12.2257C14.1959 12.3801 14.5713 12.2549 14.7257 11.9462L14.7697 11.8582C15.0923 11.213 15.0923 10.4536 14.7697 9.80847C14.6368 9.54281 14.3653 9.375 14.0683 9.375L11.6793 9.375C11.6706 9.37482 11.6618 9.37482 11.6531 9.375H9.58981L9.28983 8.62505C9.06837 8.07139 8.53212 7.70833 7.93581 7.70833H6.66667Z" fill="#FF7701" />
</svg>