<svg width="24" height="30" viewBox="0 0 24 30" fill="none" xmlns="http://www.w3.org/2000/svg">
  <path d="M21 7.5V4.38149C21 3.65245 20.3109 3.26564 19.875 3.74999C19.2334 4.46286 18.2666 4.46286 17.625 3.74999C16.9834 3.03711 16.0166 3.03711 15.375 3.74999C14.7334 4.46286 13.7666 4.46286 13.125 3.74999C12.4834 3.03711 11.5166 3.03711 10.875 3.74999C10.2334 4.46286 9.26659 4.46286 8.625 3.74999C7.98341 3.03711 7.01659 3.03711 6.375 3.74999C5.73341 4.46286 4.76659 4.46286 4.125 3.74999C3.68909 3.26564 3 3.65245 3 4.38149V17.5M21 12.5V25.6188C21 26.3478 20.3109 26.7345 19.875 26.2503C19.2334 25.5374 18.2666 25.5374 17.625 26.2503C16.9834 26.9631 16.0166 26.9631 15.375 26.2503C14.7334 25.5374 13.7666 25.5374 13.125 26.2503C12.4834 26.9631 11.5166 26.9631 10.875 26.2503C10.2334 25.5374 9.26659 25.5374 8.625 26.2503C7.98341 26.9631 7.01659 26.9631 6.375 26.2503C5.73341 25.5374 4.76659 25.5374 4.125 26.2503C3.68909 26.7345 3 26.3478 3 25.6188V22.5" stroke="#8653D4" stroke-width="1.5" stroke-linecap="round" />
  <path d="M7.5 19.375H11.5M16.5 19.375H14.5" stroke="#8653D4" stroke-width="1.5" stroke-linecap="round" />
  <path d="M16.5 15H12.5M7.5 15H9.5" stroke="#8653D4" stroke-width="1.5" stroke-linecap="round" />
  <path d="M7.5 10.625H16.5" stroke="#8653D4" stroke-width="1.5" stroke-linecap="round" />
</svg>