<svg width="20" height="20" viewBox="0 0 20 20" fill="none" xmlns="http://www.w3.org/2000/svg">
  <path d="M1.94443 5.34123C1.66675 6.37455 1.66675 7.80007 1.66675 10C1.66675 13.1248 1.66675 14.6872 2.46251 15.7824C2.71951 16.1362 3.03058 16.4472 3.38431 16.7042C4.47958 17.5 6.04197 17.5 9.16675 17.5H10.8334C13.9582 17.5 15.5206 17.5 16.6159 16.7042C16.9696 16.4472 17.2807 16.1362 17.5377 15.7824C18.3334 14.6872 18.3334 13.1248 18.3334 10C18.3334 7.79274 18.3334 6.36505 18.0529 5.33091L16.3006 7.08322C14.9404 8.44345 13.8744 9.50944 12.9309 10.2293C11.9651 10.9662 11.0545 11.3991 9.99997 11.3991C8.94542 11.3991 8.03481 10.9662 7.06903 10.2293C6.12549 9.50943 5.05951 8.44344 3.69928 7.0832L2.06996 5.45388L1.94443 5.34123Z" fill="#8653D4" />
  <path d="M2.50008 4.16667L2.59079 4.24172L2.92997 4.54613L4.54935 6.16551C5.95074 7.56689 6.95825 8.57253 7.82726 9.23556C8.68185 9.88759 9.32862 10.1491 9.99997 10.1491C10.6713 10.1491 11.3181 9.88759 12.1727 9.23556C13.0417 8.57253 14.0492 7.56689 15.4506 6.16551L17.3738 4.24225L17.4785 4.13816C17.2215 3.78443 16.9696 3.55276 16.6159 3.29576C15.5206 2.5 13.9582 2.5 10.8334 2.5H9.16675C6.04197 2.5 4.47958 2.5 3.38431 3.29576C3.03058 3.55276 2.75708 3.81294 2.50008 4.16667Z" fill="#8653D4" />
</svg>