<svg width="20" height="20" viewBox="0 0 20 20" fill="none" xmlns="http://www.w3.org/2000/svg">
  <path d="M8.95833 10.8333C8.95833 10.258 9.4247 9.79163 10 9.79163C10.5753 9.79163 11.0417 10.258 11.0417 10.8333C11.0417 11.4086 10.5753 11.875 10 11.875C9.4247 11.875 8.95833 11.4086 8.95833 10.8333Z" fill="#FF7701" />
  <path fill-rule="evenodd" clip-rule="evenodd" d="M10 1.04163C7.35364 1.04163 5.20833 3.18693 5.20833 5.83329V6.76139C5.20833 6.81706 5.21561 6.87103 5.22927 6.9224C4.03252 7.36215 3.09972 8.32761 2.70393 9.54572C2.5 10.1734 2.5 10.9489 2.5 12.5C2.5 14.051 2.5 14.8266 2.70393 15.4542C3.11609 16.7227 4.1106 17.7172 5.3791 18.1294C6.00673 18.3333 6.78226 18.3333 8.33332 18.3333H11.6667C13.2177 18.3333 13.9933 18.3333 14.6209 18.1294C15.8894 17.7172 16.8839 16.7227 17.2961 15.4542C17.5 14.8266 17.5 14.051 17.5 12.5C17.5 10.9489 17.5 10.1734 17.2961 9.54572C16.9003 8.32761 15.9675 7.36215 14.7707 6.9224C14.7844 6.87103 14.7917 6.81706 14.7917 6.76139V5.83329C14.7917 3.18693 12.6464 1.04163 10 1.04163ZM11.6667 6.66663C12.4711 6.66663 13.0669 6.66663 13.5417 6.69507V5.83329C13.5417 3.87728 11.956 2.29163 10 2.29163C8.04399 2.29163 6.45833 3.87728 6.45833 5.83329V6.69507C6.93311 6.66663 7.52893 6.66663 8.33333 6.66663H11.6667ZM7.70833 10.8333C7.70833 9.56764 8.73435 8.54163 10 8.54163C11.2657 8.54163 12.2917 9.56764 12.2917 10.8333C12.2917 11.8823 11.5869 12.7666 10.625 13.0387V15.8333C10.625 16.1785 10.3452 16.4583 10 16.4583C9.65482 16.4583 9.375 16.1785 9.375 15.8333V13.0387C8.41312 12.7666 7.70833 11.8823 7.70833 10.8333Z" fill="#FF7701" />
</svg>