<svg width="19" height="18" viewBox="0 0 19 18" fill="none" xmlns="http://www.w3.org/2000/svg">
  <path fill-rule="evenodd" clip-rule="evenodd" d="M4 8.25C3.58579 8.25 3.25 8.58579 3.25 9C3.25 9.41421 3.58579 9.75 4 9.75L12 9.75L12 12C12 12.929 12 13.3935 11.9384 13.7822C11.5996 15.9216 9.92163 17.5996 7.78217 17.9384C7.39351 18 6.929 18 6 18C5.07099 18 4.60649 18 4.21783 17.9384C2.07836 17.5996 0.400415 15.9216 0.0615572 13.7822C-5.85449e-07 13.3935 -5.65145e-07 12.929 -5.24537e-07 12L-2.62268e-07 6C-2.2166e-07 5.07099 -2.01356e-07 4.60649 0.0615576 4.21783C0.400415 2.07836 2.07837 0.400415 4.21783 0.0615577C4.60649 -6.18232e-07 5.07099 -5.97928e-07 6 -5.5732e-07C6.92901 -5.16712e-07 7.39351 -4.96408e-07 7.78217 0.0615579C9.92163 0.400416 11.5996 2.07837 11.9384 4.21783C12 4.60649 12 5.07099 12 6L12 8.25L4 8.25ZM12 8.25L16.8105 8.25C16.483 7.92734 16.001 7.54375 15.297 6.98553L13.534 5.58768C13.2095 5.33034 13.155 4.8586 13.4123 4.53403C13.6697 4.20946 14.1414 4.15497 14.466 4.41232L16.2648 5.83857C16.9372 6.37175 17.4922 6.81172 17.8875 7.20551C18.2932 7.60963 18.6294 8.05816 18.7208 8.63133C18.7402 8.75344 18.75 8.87661 18.75 9C18.75 9.12339 18.7402 9.24656 18.7208 9.36867C18.6294 9.94184 18.2932 10.3904 17.8875 10.7945C17.4922 11.1883 16.9373 11.6282 16.2648 12.1614L14.466 13.5877C14.1414 13.845 13.6697 13.7905 13.4123 13.466C13.155 13.1414 13.2095 12.6697 13.534 12.4123L15.297 11.0145C16.001 10.4563 16.483 10.0727 16.8105 9.75L12 9.75L12 8.25Z" fill="#282735" />
</svg>