<svg width="30" height="30" viewBox="0 0 30 30" fill="none" xmlns="http://www.w3.org/2000/svg">
  <path d="M27.5 27.5H2.5" stroke="#8653D4" stroke-width="1.5" stroke-linecap="round" />
  <path d="M26.2501 27.5V16.25M13.7556 6.25C13.778 4.70028 13.893 3.82166 14.4824 3.23224C15.2146 2.5 16.3931 2.5 18.7501 2.5H21.2501C23.6072 2.5 24.7857 2.5 25.518 3.23224C26.2501 3.96446 26.2501 5.14298 26.2501 7.5V11.25" stroke="#8653D4" stroke-width="1.5" stroke-linecap="round" />
  <path d="M18.75 27.5V20M3.75 27.5V16.25M3.75 11.25C3.75 8.89298 3.75 7.71446 4.48224 6.98224C5.21446 6.25 6.39298 6.25 8.75 6.25H13.75C16.107 6.25 17.2855 6.25 18.0177 6.98224C18.75 7.71446 18.75 8.89298 18.75 11.25V15" stroke="#8653D4" stroke-width="1.5" stroke-linecap="round" />
  <path d="M11.25 27.5V23.75" stroke="#8653D4" stroke-width="1.5" stroke-linecap="round" />
  <path d="M7.5 10H15" stroke="#8653D4" stroke-width="1.5" stroke-linecap="round" />
  <path d="M7.5 13.75H8.75M15 13.75H11.875" stroke="#8653D4" stroke-width="1.5" stroke-linecap="round" />
  <path d="M7.5 17.5H15" stroke="#8653D4" stroke-width="1.5" stroke-linecap="round" />
</svg>