<svg width="20" height="20" viewBox="0 0 20 20" fill="none" xmlns="http://www.w3.org/2000/svg">
  <path d="M16.2754 4.60857C16.5195 4.36449 16.5195 3.96876 16.2754 3.72468C16.0313 3.48061 15.6356 3.48061 15.3915 3.72468L10.0001 9.11609L4.60869 3.72469C4.36461 3.48061 3.96888 3.48061 3.72481 3.72469C3.48073 3.96876 3.48073 4.36449 3.72481 4.60857L9.11621 9.99997L3.72483 15.3914C3.48075 15.6354 3.48075 16.0312 3.72483 16.2752C3.96891 16.5193 4.36463 16.5193 4.60871 16.2752L10.0001 10.8839L15.3915 16.2752C15.6356 16.5193 16.0313 16.5193 16.2754 16.2752C16.5194 16.0312 16.5194 15.6354 16.2754 15.3914L10.884 9.99997L16.2754 4.60857Z" fill="#FD4141" />
</svg>