<svg width="18" height="23" viewBox="0 0 18 23" fill="none" xmlns="http://www.w3.org/2000/svg">
  <path d="M8.09986 0.25C4.7043 0.25 2.07712 3.22603 2.49828 6.59536L2.57764 7.23021C2.69376 8.15916 2.35443 9.08706 1.66642 9.72194C0.240741 11.0375 -0.155354 13.1315 0.691296 14.8769L0.794647 15.09C1.58382 16.7169 3.23312 17.75 5.04135 17.75H13.2622C14.8219 17.75 16.2735 16.9532 17.1109 15.6373C18.2931 13.7799 17.98 11.3432 16.3667 9.84496L16.3228 9.8042C15.5843 9.11833 15.2206 8.11912 15.3457 7.11901L15.4103 6.60208C15.8319 3.22918 13.2019 0.25 9.80277 0.25H8.09986Z" fill="#282735" />
  <path d="M6.78327 19.55C6.53474 19.2186 6.06464 19.1515 5.73327 19.4C5.4019 19.6485 5.33474 20.1186 5.58327 20.45L5.88327 20.85C7.53327 23.05 10.8333 23.05 12.4833 20.85L12.7833 20.45C13.0318 20.1186 12.9646 19.6485 12.6333 19.4C12.3019 19.1515 11.8318 19.2186 11.5833 19.55L11.2833 19.95C10.2333 21.35 8.13327 21.35 7.08327 19.95L6.78327 19.55Z" fill="#282735" />
</svg>