<svg width="18" height="19" viewBox="0 0 18 19" fill="none" xmlns="http://www.w3.org/2000/svg">
  <path fill-rule="evenodd" clip-rule="evenodd" d="M0.0416718 9.49996C0.0416718 4.55241 4.05245 0.541626 9.00001 0.541626C13.9476 0.541626 17.9583 4.55241 17.9583 9.49996C17.9583 12.0403 16.9001 14.3346 15.2021 15.9642C13.5931 17.5083 11.4068 18.4583 9.00001 18.4583C6.59319 18.4583 4.40694 17.5083 2.79793 15.9642C1.09991 14.3346 0.0416718 12.0403 0.0416718 9.49996ZM14.0693 15.3071C13.7101 14.2326 12.6949 13.4583 11.5 13.4583H6.50001C5.30511 13.4583 4.28993 14.2326 3.93073 15.3071C5.28627 16.4915 7.05886 17.2083 9.00001 17.2083C10.9412 17.2083 12.7137 16.4915 14.0693 15.3071ZM9.00001 3.04163C6.81388 3.04163 5.04167 4.81383 5.04167 6.99996C5.04167 9.18609 6.81388 10.9583 9.00001 10.9583C11.1861 10.9583 12.9583 9.18609 12.9583 6.99996C12.9583 4.81383 11.1861 3.04163 9.00001 3.04163Z" fill="#282735" />
</svg>