<svg width="20" height="20" viewBox="0 0 20 20" fill="none" xmlns="http://www.w3.org/2000/svg">
  <path d="M19 9.91691C19.0013 9.72472 18.9626 9.53436 18.8863 9.35796C18.81 9.18156 18.6978 9.02297 18.5569 8.89229L10 1L1.44311 8.89229C1.30219 9.02297 1.19002 9.18156 1.11374 9.35796C1.03745 9.53436 0.998732 9.72472 1.00003 9.91691V17.6154C1.00003 17.9825 1.14591 18.3348 1.40558 18.5944C1.66524 18.854 2.01743 19 2.38464 19H17.6154C17.9825 19 18.3348 18.854 18.5944 18.5944C18.8542 18.3348 19 17.9825 19 17.6154V9.91691Z" stroke="white" stroke-width="1.5" stroke-linecap="round" stroke-linejoin="round" />
  <path d="M10.3462 14.1553H14.4986C14.4986 14.1553 14.8448 14.1553 14.8448 14.5014V18.6539C14.8448 18.6539 14.8448 19 14.4986 19H10.3462C10.3462 19 10 19 10 18.6539V14.5014C10 14.5014 10 14.1553 10.3462 14.1553Z" stroke="white" stroke-width="1.5" stroke-linecap="round" stroke-linejoin="round" />
  <path d="M7.9233 9.30908H12.0758C12.0758 9.30908 12.4219 9.30908 12.4219 9.65523V13.8077C12.4219 13.8077 12.4219 14.1538 12.0758 14.1538H7.9233C7.9233 14.1538 7.57715 14.1538 7.57715 13.8077V9.65523C7.57715 9.65523 7.57715 9.30908 7.9233 9.30908Z" stroke="white" stroke-width="1.5" stroke-linecap="round" stroke-linejoin="round" />
  <path d="M5.50143 14.1553H9.65388C9.65388 14.1553 10 14.1553 10 14.5014V18.6539C10 18.6539 10 19 9.65388 19H5.50143C5.50143 19 5.15527 19 5.15527 18.6539V14.5014C5.15527 14.5014 5.15527 14.1553 5.50143 14.1553Z" stroke="white" stroke-width="1.5" stroke-linecap="round" stroke-linejoin="round" />
</svg>