<svg width="20" height="20" viewBox="0 0 20 20" fill="none" xmlns="http://www.w3.org/2000/svg">
  <path d="M16.3636 14.9697C16.0707 14.6768 15.5958 14.6768 15.3029 14.9697C15.01 15.2626 15.01 15.7375 15.3029 16.0304L16.3636 14.9697ZM18.6361 19.3637C18.929 19.6566 19.4039 19.6566 19.6968 19.3637C19.9897 19.0708 19.9897 18.5959 19.6968 18.303L18.6361 19.3637ZM15.3029 16.0304L18.6361 19.3637L19.6968 18.303L16.3636 14.9697L15.3029 16.0304ZM9.1665 15.5833C5.43858 15.5833 2.4165 12.5612 2.4165 8.83331H0.916504C0.916504 13.3897 4.61015 17.0833 9.1665 17.0833V15.5833ZM15.9165 8.83331C15.9165 12.5612 12.8944 15.5833 9.1665 15.5833V17.0833C13.7229 17.0833 17.4165 13.3897 17.4165 8.83331H15.9165ZM9.1665 2.08331C12.8944 2.08331 15.9165 5.10539 15.9165 8.83331H17.4165C17.4165 4.27696 13.7229 0.583313 9.1665 0.583313V2.08331ZM9.1665 0.583313C4.61015 0.583313 0.916504 4.27696 0.916504 8.83331H2.4165C2.4165 5.10539 5.43858 2.08331 9.1665 2.08331V0.583313Z" fill="#282735" />
</svg>