<svg width="18" height="19" viewBox="0 0 18 19" fill="none" xmlns="http://www.w3.org/2000/svg">
  <path d="M7.12499 9.50005C7.12499 8.46452 7.96446 7.62505 8.99999 7.62505C10.0355 7.62505 10.875 8.46452 10.875 9.50005C10.875 10.5356 10.0355 11.3751 8.99999 11.3751C7.96446 11.3751 7.12499 10.5356 7.12499 9.50005Z" fill="#282735" />
  <path fill-rule="evenodd" clip-rule="evenodd" d="M6.15435 2.19362C6.97136 -0.669195 11.0285 -0.669196 11.8455 2.19362C12.0987 3.08063 13.01 3.60676 13.9047 3.38248C16.7925 2.65862 18.8211 6.17224 16.7503 8.3112C16.1087 8.97392 16.1087 10.0262 16.7503 10.6889C18.8211 12.8279 16.7925 16.3415 13.9047 15.6176C13.01 15.3934 12.0987 15.9195 11.8455 16.8065C11.0285 19.6693 6.97136 19.6693 6.15435 16.8065C5.90121 15.9195 4.98992 15.3934 4.09519 15.6176C1.20741 16.3415 -0.821178 12.8279 1.24959 10.6889C1.89119 10.0262 1.89119 8.97392 1.24959 8.3112C-0.821177 6.17224 1.20741 2.65862 4.09519 3.38248C4.98992 3.60676 5.90121 3.08063 6.15435 2.19362ZM8.99999 6.37505C7.2741 6.37505 5.87499 7.77416 5.87499 9.50005C5.87499 11.2259 7.2741 12.6251 8.99999 12.6251C10.7259 12.6251 12.125 11.2259 12.125 9.50005C12.125 7.77416 10.7259 6.37505 8.99999 6.37505Z" fill="#282735" />
</svg>