<svg width="20" height="20" viewBox="0 0 20 20" fill="none" xmlns="http://www.w3.org/2000/svg">
  <path fill-rule="evenodd" clip-rule="evenodd" d="M11.9216 5.99079C11.781 5.13564 11.9588 4.25862 12.4213 3.52575C12.8839 2.79288 13.5991 2.25505 14.4315 2.01407C15.264 1.77309 16.1559 1.84569 16.9384 2.21814C17.7209 2.59058 18.3397 3.23701 18.6777 4.03504C19.0156 4.83307 19.0492 5.72731 18.7721 6.54845C18.495 7.36959 17.9265 8.06063 17.1741 8.49075C16.4217 8.92086 15.5378 9.06019 14.6896 8.88236C13.8414 8.70453 13.0878 8.22188 12.5716 7.52579L8.07827 9.42579C8.1403 9.80605 8.1403 10.1939 8.07827 10.5741L12.5708 12.4741C13.087 11.778 13.8406 11.2954 14.6888 11.1175C15.5369 10.9397 16.4209 11.079 17.1733 11.5092C17.9256 11.9393 18.4942 12.6303 18.7713 13.4515C19.0483 14.2726 19.0147 15.1668 18.6768 15.9649C18.3389 16.7629 17.7201 17.4093 16.9376 17.7818C16.1551 18.1542 15.2631 18.2268 14.4307 17.9858C13.5982 17.7449 12.883 17.207 12.4205 16.4742C11.9579 15.7413 11.7801 14.8643 11.9208 14.0091L7.42911 12.1091C6.98549 12.7077 6.36438 13.1512 5.65417 13.3764C4.94396 13.6016 4.18081 13.5971 3.4733 13.3635C2.7658 13.1299 2.14999 12.6791 1.71348 12.0753C1.27696 11.4715 1.04199 10.7454 1.04199 10.0004C1.04199 9.25531 1.27696 8.52922 1.71348 7.92541C2.14999 7.32161 2.7658 6.87085 3.4733 6.63726C4.18081 6.40367 4.94396 6.39916 5.65417 6.62437C6.36438 6.84957 6.98549 7.29302 7.42911 7.89162L11.9216 5.99079Z" fill="#8653D4" />
</svg>