<svg width="18" height="18" viewBox="0 0 18 18" fill="none" xmlns="http://www.w3.org/2000/svg">
  <path d="M0.302431 3.39572C0.32691 3.16532 0.614911 3.10772 0.748831 3.29924L2.97075 6.51332C3.11138 6.71697 3.30212 6.88094 3.52457 6.9894C3.74703 7.09787 3.99368 7.14717 4.24073 7.13255C4.48779 7.11793 4.7269 7.03989 4.93501 6.90595C5.14312 6.77201 5.3132 6.58669 5.42883 6.36788L8.69763 0.183083C8.72652 0.127866 8.76997 0.0816113 8.82328 0.0493369C8.87659 0.0170624 8.93771 0 9.00003 0C9.06235 0 9.12347 0.0170624 9.17678 0.0493369C9.23009 0.0816113 9.27354 0.127866 9.30243 0.183083L12.5712 6.36644C12.6869 6.58525 12.8569 6.77057 13.0651 6.90451C13.2732 7.03845 13.5123 7.11649 13.7593 7.13111C14.0064 7.14573 14.253 7.09643 14.4755 6.98796C14.6979 6.8795 14.8887 6.71553 15.0293 6.51188L17.2512 3.2978C17.3852 3.10628 17.6732 3.16244 17.6976 3.39428C17.8618 4.92644 18 6.49892 18 8.10164C18 9.70436 17.8618 11.2768 17.6976 12.8076C17.5833 13.8206 17.1291 14.7649 16.4092 15.4867C15.6892 16.2085 14.746 16.665 13.7333 16.782C12.1925 16.9548 10.6128 17.1016 9.00003 17.1016C7.38723 17.1016 5.80611 16.9548 4.26675 16.782C3.25404 16.665 2.31082 16.2085 1.59089 15.4867C0.870958 14.7649 0.416785 13.8206 0.302431 12.8076C0.138271 11.2783 3.05176e-05 9.70724 3.05176e-05 8.10308C3.05176e-05 6.49892 0.138271 4.92788 0.302431 3.39572Z" fill="#282735" />
</svg>