<svg width="20" height="20" viewBox="0 0 20 20" fill="none" xmlns="http://www.w3.org/2000/svg">
  <path d="M6.58333 4.16668C6.58333 3.75246 6.24755 3.41668 5.83333 3.41668C5.41912 3.41668 5.08333 3.75246 5.08333 4.16668L6.58333 4.16668ZM5.83333 15H6.58333H5.83333ZM3.08768 12.034C2.83034 11.7095 2.3586 11.655 2.03403 11.9123C1.70946 12.1697 1.65497 12.6414 1.91232 12.966L3.08768 12.034ZM3.66487 13.9692L3.07719 14.4351L3.66487 13.9692ZM8.00179 13.9692L7.41411 13.5032H7.41411L8.00179 13.9692ZM9.75435 12.966C10.0117 12.6414 9.9572 12.1697 9.63264 11.9123C9.30807 11.655 8.83633 11.7095 8.57898 12.034L9.75435 12.966ZM5.62444 15.8168L5.50644 16.5574H5.50644L5.62444 15.8168ZM6.04222 15.8168L6.16023 16.5574H6.16023L6.04222 15.8168ZM13.4167 15C13.4167 15.4142 13.7525 15.75 14.1667 15.75C14.5809 15.75 14.9167 15.4142 14.9167 15H13.4167ZM14.1667 4.16668H13.4167V4.16668L14.1667 4.16668ZM10.2456 6.20071C9.9883 6.52528 10.0428 6.99701 10.3674 7.25436C10.6919 7.51171 11.1637 7.45722 11.421 7.13265L10.2456 6.20071ZM11.9982 5.19754L11.4105 4.73157L11.9982 5.19754ZM16.3351 5.19754L16.9228 4.73157L16.3351 5.19754ZM16.9123 7.13265C17.1697 7.45722 17.6414 7.51171 17.966 7.25436C18.2905 6.99701 18.345 6.52528 18.0877 6.20071L16.9123 7.13265ZM13.9578 3.34992L13.8398 2.60926L13.8398 2.60926L13.9578 3.34992ZM14.3756 3.34992L14.4936 2.60926L14.4936 2.60926L14.3756 3.34992ZM5.08333 4.16668L5.08333 15H6.58333L6.58333 4.16668L5.08333 4.16668ZM1.91232 12.966L3.07719 14.4351L4.25256 13.5032L3.08768 12.034L1.91232 12.966ZM8.58948 14.4351L9.75435 12.966L8.57898 12.034L7.41411 13.5032L8.58948 14.4351ZM3.07719 14.4351C3.53029 15.0066 3.9092 15.4863 4.24937 15.8278C4.59288 16.1726 4.98988 16.4751 5.50644 16.5574L5.74245 15.0761C5.69288 15.0682 5.57458 15.0327 5.31207 14.7692C5.04623 14.5023 4.72842 14.1033 4.25256 13.5032L3.07719 14.4351ZM7.41411 13.5032C6.93825 14.1033 6.62044 14.5023 6.35459 14.7692C6.09209 15.0327 5.97379 15.0682 5.92421 15.0761L6.16023 16.5574C6.67679 16.4751 7.07379 16.1726 7.4173 15.8278C7.75746 15.4863 8.13638 15.0066 8.58948 14.4351L7.41411 13.5032ZM14.9167 15L14.9167 4.16668L13.4167 4.16668L13.4167 15H14.9167ZM11.421 7.13265L12.5859 5.66351L11.4105 4.73157L10.2456 6.20071L11.421 7.13265ZM15.7474 5.66351L16.9123 7.13265L18.0877 6.20071L16.9228 4.73157L15.7474 5.66351ZM12.5859 5.66351C13.0618 5.06334 13.3796 4.66438 13.6454 4.3975C13.9079 4.13399 14.0262 4.09847 14.0758 4.09058L13.8398 2.60926C13.3232 2.69156 12.9262 2.99405 12.5827 3.33889C12.2425 3.68037 11.8636 4.16012 11.4105 4.73157L12.5859 5.66351ZM16.9228 4.73157C16.4697 4.16012 16.0908 3.68037 15.7506 3.33889C15.4071 2.99405 15.0101 2.69156 14.4936 2.60926L14.2575 4.09058C14.3071 4.09847 14.4254 4.13399 14.6879 4.3975C14.9538 4.66438 15.2716 5.06334 15.7474 5.66351L16.9228 4.73157ZM14.0758 4.09058C14.1062 4.08572 14.1366 4.08334 14.1667 4.08334V2.58334C14.0572 2.58334 13.948 2.59201 13.8398 2.60926L14.0758 4.09058ZM14.1667 4.08334C14.1968 4.08334 14.2271 4.08572 14.2575 4.09058L14.4936 2.60926C14.3853 2.59201 14.2761 2.58334 14.1667 2.58334V4.08334ZM14.9167 4.16668V3.33334H13.4167V4.16668H14.9167ZM5.50644 16.5574C5.61468 16.5747 5.7239 16.5833 5.83333 16.5833L5.83333 15.0833C5.80323 15.0833 5.77292 15.081 5.74245 15.0761L5.50644 16.5574ZM5.83333 16.5833C5.94276 16.5833 6.05199 16.5747 6.16023 16.5574L5.92422 15.0761C5.89375 15.081 5.86344 15.0833 5.83333 15.0833L5.83333 16.5833ZM5.08333 15V15.8333H6.58333V15H5.08333Z" fill="#282735" />
</svg>