<svg width="20" height="20" viewBox="0 0 20 20" fill="none" xmlns="http://www.w3.org/2000/svg">
  <path d="M3.253 18.769C2.158 18.6799 1.32014 17.842 1.231 16.747C1.11871 15.3636 1 13.156 1 10C1 6.844 1.11871 4.63643 1.231 3.253C1.32014 2.158 2.158 1.32014 3.253 1.231C4.63643 1.11871 6.844 1 10 1C13.156 1 15.3636 1.11871 16.747 1.231C17.842 1.32014 18.6799 2.158 18.769 3.253C18.8813 4.63643 19 6.844 19 10C19 13.156 18.8813 15.3636 18.769 16.747C18.6799 17.842 17.842 18.6799 16.747 18.769C15.3636 18.8813 13.156 19 10 19C6.844 19 4.63643 18.8813 3.253 18.769Z" stroke="#282735" stroke-width="1.5" stroke-linecap="round" stroke-linejoin="round" />
  <path d="M6.14307 18.9331V1.06592" stroke="#282735" stroke-width="1.5" stroke-linecap="round" stroke-linejoin="round" />
  <path d="M1.10693 7H18.8926" stroke="#282735" stroke-width="1.5" stroke-linecap="round" stroke-linejoin="round" />
  <path d="M1.10693 13H18.8926" stroke="#282735" stroke-width="1.5" stroke-linecap="round" stroke-linejoin="round" />
</svg>