<svg width="20" height="21" viewBox="0 0 20 21" fill="none" xmlns="http://www.w3.org/2000/svg">
  <path d="M2.67822 0.919693C2.67991 0.540001 2.37348 0.230827 1.99379 0.229133C1.6141 0.227439 1.30492 0.533867 1.30323 0.913559L1.29493 2.7735C1.29182 3.46546 1.28924 4.04261 1.33991 4.50661C1.39306 4.9933 1.51185 5.44185 1.8134 5.83151C1.89506 5.93702 1.98494 6.03574 2.08214 6.12677C2.13938 6.18038 2.19916 6.23131 2.26129 6.2794C2.65095 6.58095 3.0995 6.69974 3.58619 6.75289C4.05019 6.80356 4.6273 6.80097 5.31925 6.79787H5.31927L7.17924 6.78957C7.55893 6.78787 7.86536 6.4787 7.86367 6.09901C7.86197 5.71932 7.5528 5.41289 7.1731 5.41458L5.35287 5.4227C4.6109 5.42601 4.11252 5.4272 3.73546 5.38602C3.7071 5.38292 3.67997 5.37963 3.65399 5.37615C4.03304 4.94878 4.45459 4.55993 4.91199 4.21628C6.32921 3.15149 8.08992 2.52079 9.99992 2.52079C14.6828 2.52079 18.4791 6.31704 18.4791 11C18.4791 15.6829 14.6828 19.4791 9.99992 19.4791C5.317 19.4791 1.52075 15.6829 1.52075 11C1.52075 10.6203 1.21295 10.3125 0.833252 10.3125C0.453557 10.3125 0.145752 10.6203 0.145752 11C0.145752 16.4423 4.55761 20.8541 9.99992 20.8541C15.4422 20.8541 19.8541 16.4423 19.8541 11C19.8541 5.55765 15.4422 1.14579 9.99992 1.14579C7.78189 1.14579 5.73324 1.87942 4.08606 3.11697C3.58808 3.49112 3.12673 3.91134 2.70834 4.37133L2.70678 4.35734C2.6656 3.98028 2.66678 3.4819 2.67009 2.73993L2.67822 0.919693Z" fill="#282735" />
</svg>