<svg width="20" height="20" viewBox="0 0 20 20" fill="none" xmlns="http://www.w3.org/2000/svg">
  <path d="M2.41699 9.99999C2.41699 9.58578 2.08121 9.24999 1.66699 9.24999C1.25278 9.24999 0.916992 9.58578 0.916992 9.99999H2.41699ZM4.99951 3.33333L5.45002 3.93295H5.45002L4.99951 3.33333ZM3.33366 4.99918L3.88849 5.50383L3.91215 5.47781L3.93328 5.44969L3.33366 4.99918ZM3.46923 0.836674C3.47108 0.422465 3.13679 0.0851837 2.72258 0.0833357C2.30837 0.0814877 1.97109 0.415773 1.96925 0.829982L3.46923 0.836674ZM2.71186 2.48809L1.96186 2.48474V2.48474L2.71186 2.48809ZM5.77852 5.55476L5.78187 6.30475H5.78187L5.77852 5.55476ZM7.43663 6.29737C7.85084 6.29552 8.18512 5.95824 8.18328 5.54403C8.18143 5.12982 7.84415 4.79553 7.42994 4.79738L7.43663 6.29737ZM3.05231 4.91889L2.45918 5.37791L2.45918 5.37791L3.05231 4.91889ZM3.34773 5.2143L2.88871 5.80743L2.88871 5.80743L3.34773 5.2143ZM0.916992 9.99999C0.916992 15.0166 4.98374 19.0833 10.0003 19.0833V17.5833C5.81217 17.5833 2.41699 14.1882 2.41699 9.99999H0.916992ZM10.0003 19.0833C15.0169 19.0833 19.0837 15.0166 19.0837 9.99999H17.5837C17.5837 14.1882 14.1885 17.5833 10.0003 17.5833V19.0833ZM19.0837 9.99999C19.0837 4.98341 15.0169 0.916662 10.0003 0.916662V2.41666C14.1885 2.41666 17.5837 5.81184 17.5837 9.99999H19.0837ZM10.0003 0.916662C7.95594 0.916662 6.06734 1.59295 4.54901 2.73371L5.45002 3.93295C6.71749 2.98067 8.29196 2.41666 10.0003 2.41666V0.916662ZM4.54901 2.73371C3.86182 3.25001 3.25034 3.86149 2.73404 4.54868L3.93328 5.44969C4.36471 4.87546 4.87579 4.36438 5.45002 3.93295L4.54901 2.73371ZM1.96925 0.829982L1.96186 2.48474L3.46185 2.49143L3.46923 0.836674L1.96925 0.829982ZM5.78187 6.30475L7.43663 6.29737L7.42994 4.79738L5.77518 4.80476L5.78187 6.30475ZM1.96186 2.48474C1.959 3.12693 1.95543 3.67194 2.00333 4.11052C2.05287 4.56419 2.16514 4.99796 2.45918 5.37791L3.64544 4.45987C3.59019 4.38848 3.5293 4.26667 3.49446 3.94768C3.45798 3.6136 3.45883 3.16889 3.46185 2.49143L1.96186 2.48474ZM5.77518 4.80476C5.09772 4.80779 4.65301 4.80863 4.31893 4.77215C3.99994 4.73732 3.87813 4.67642 3.80674 4.62117L2.88871 5.80743C3.26865 6.10147 3.70243 6.21374 4.15609 6.26329C4.59467 6.31118 5.13969 6.30761 5.78187 6.30475L5.77518 4.80476ZM2.45918 5.37791C2.53749 5.47909 2.62368 5.57376 2.7169 5.66106L3.74222 4.5662C3.70722 4.53342 3.67486 4.49788 3.64544 4.45987L2.45918 5.37791ZM2.7169 5.66106C2.77179 5.71247 2.82912 5.76131 2.88871 5.80743L3.80675 4.62117C3.78436 4.60385 3.76283 4.5855 3.74222 4.5662L2.7169 5.66106ZM2.77883 4.49454L2.67473 4.60899L3.78439 5.61827L3.88849 5.50383L2.77883 4.49454Z" fill="#8653D4" />
</svg>