<svg width="20" height="20" viewBox="0 0 20 20" fill="none" xmlns="http://www.w3.org/2000/svg">
  <path d="M15.4167 6.45837C15.4167 4.73248 14.0176 3.33337 12.2917 3.33337C10.5658 3.33337 9.16669 4.73248 9.16669 6.45837C9.16669 8.18426 10.5658 9.58337 12.2917 9.58337C14.0176 9.58337 15.4167 8.18426 15.4167 6.45837Z" fill="#FF7701" />
  <path d="M9.50055 3.65161C8.77963 4.36853 8.33335 5.36134 8.33335 6.45837C8.33335 7.55541 8.77963 8.54822 9.50055 9.26514C9.08549 9.46893 8.61862 9.58337 8.12502 9.58337C6.39913 9.58337 5.00002 8.18426 5.00002 6.45837C5.00002 4.73248 6.39913 3.33337 8.12502 3.33337C8.61862 3.33337 9.08549 3.44781 9.50055 3.65161Z" fill="#FF7701" />
  <path d="M17.9167 13.9584C17.9167 12.2325 16.5176 10.8334 14.7917 10.8334H9.79169C8.0658 10.8334 6.66669 12.2325 6.66669 13.9584C6.66669 15.6843 8.0658 17.0834 9.79169 17.0834H14.7917C16.5176 17.0834 17.9167 15.6843 17.9167 13.9584Z" fill="#FF7701" />
  <path d="M5.83335 13.9584C5.83335 14.8124 6.10384 15.6033 6.56381 16.25H5.62502C3.89913 16.25 2.50002 14.8509 2.50002 13.125C2.50002 11.3992 3.89913 10 5.62502 10H9.79169C7.60556 10 5.83335 11.7722 5.83335 13.9584Z" fill="#FF7701" />
</svg>