<svg width="30" height="30" viewBox="0 0 30 30" fill="none" xmlns="http://www.w3.org/2000/svg">
  <path d="M23.75 10C25.8211 10 27.5 8.32107 27.5 6.25C27.5 4.17893 25.8211 2.5 23.75 2.5C21.6789 2.5 20 4.17893 20 6.25C20 8.32107 21.6789 10 23.75 10Z" stroke="#8653D4" stroke-width="1.5" />
  <path d="M8.75 17.5H20" stroke="#8653D4" stroke-width="1.5" stroke-linecap="round" />
  <path d="M8.75 21.875H16.25" stroke="#8653D4" stroke-width="1.5" stroke-linecap="round" />
  <path d="M2.5 15C2.5 20.8925 2.5 23.8389 4.33059 25.6694C6.16116 27.5 9.10744 27.5 15 27.5C20.8925 27.5 23.8389 27.5 25.6694 25.6694C27.5 23.8389 27.5 20.8925 27.5 15V13.125M16.875 2.5H15C9.10744 2.5 6.16116 2.5 4.33059 4.33059C3.11341 5.54776 2.70555 7.25819 2.56887 10" stroke="#8653D4" stroke-width="1.5" stroke-linecap="round" />
</svg>