<svg width="14" height="13" viewBox="0 0 14 13" fill="none" xmlns="http://www.w3.org/2000/svg">
  <path d="M13.2756 1.10857C13.5197 0.86449 13.5197 0.468762 13.2756 0.224684C13.0315 -0.0193934 12.6358 -0.0193934 12.3917 0.224684L7.00033 5.61609L1.60893 0.224687C1.36486 -0.019391 0.969128 -0.019391 0.72505 0.224687C0.480973 0.468764 0.480973 0.864493 0.72505 1.10857L6.11645 6.49997L0.725073 11.8914C0.480995 12.1354 0.480995 12.5312 0.725073 12.7752C0.969151 13.0193 1.36488 13.0193 1.60896 12.7752L7.00034 7.38385L12.3917 12.7752C12.6358 13.0193 13.0315 13.0193 13.2756 12.7752C13.5197 12.5312 13.5197 12.1354 13.2756 11.8914L7.88422 6.49997L13.2756 1.10857Z" fill="#8653D4" />
</svg>